<svg width="127" height="19" viewBox="0 0 127 19" xmlns="http://www.w3.org/2000/svg"><title>LabStack</title><path d="M16.242 19H2.344c-.22 0-.422-.04-.61-.117a1.49 1.49 0 0 1-.486-.322 1.49 1.49 0 0 1-.322-.486 1.568 1.568 0 0 1-.117-.61V2.195h3.045v13.76h12.387V19zm14.977-4.195c0 .422-.075.877-.224 1.365a4.08 4.08 0 0 1-.72 1.36 4.018 4.018 0 0 1-1.3 1.048c-.537.28-1.187.422-1.953.422h-5.496a4.71 4.71 0 0 1-1.365-.223 4.08 4.08 0 0 1-1.36-.72 4.018 4.018 0 0 1-1.048-1.3c-.28-.536-.422-1.187-.422-1.952 0-.422.074-.88.223-1.37a4.07 4.07 0 0 1 .72-1.367 4.018 4.018 0 0 1 1.3-1.048c.536-.282 1.187-.422 1.952-.422h5.496v2.906h-5.496c-.414 0-.734.127-.96.38-.227.255-.34.57-.34.944 0 .4.13.71.392.932.26.222.57.334.93.334h5.473c.415 0 .735-.125.96-.375.228-.25.34-.564.34-.94v-4.253c0-.398-.122-.714-.368-.95-.246-.233-.557-.35-.932-.35h-6.69V6.332h6.69c.422 0 .877.074 1.366.223.487.148.94.388 1.358.72.418.332.768.766 1.05 1.3.28.536.42 1.187.42 1.952v4.278zm16.57-.082a4.696 4.696 0 0 1-.41 1.87c-.142.315-.323.618-.546.907-.223.29-.492.545-.81.768-.315.222-.68.4-1.094.533-.414.134-.883.2-1.407.2h-5.496a4.696 4.696 0 0 1-1.87-.41 4.445 4.445 0 0 1-.907-.545 3.697 3.697 0 0 1-.768-.81 4.01 4.01 0 0 1-.533-1.1c-.134-.418-.2-.89-.2-1.412V.977h3.047v13.746c0 .375.117.673.35.896.236.222.53.333.88.333h5.496c.383 0 .682-.113.897-.34.215-.226.322-.523.322-.89v-4.125c0-.383-.113-.682-.34-.897-.226-.214-.52-.32-.88-.32h-5.495V6.33h5.496a4.696 4.696 0 0 1 1.87.41c.316.14.62.322.908.545.29.223.544.492.763.81.218.315.394.68.527 1.094.133.415.2.884.2 1.408v4.125zm19.09-.668a5.36 5.36 0 0 1-.23 1.623c-.152.48-.353.904-.603 1.27a4.03 4.03 0 0 1-.88.94 5.39 5.39 0 0 1-1.042.632c-.36.164-.725.285-1.096.363-.372.078-.72.117-1.05.117H50.227v-3.047H61.98c.586 0 1.04-.172 1.366-.515.324-.344.486-.805.486-1.383 0-.282-.043-.54-.13-.774a1.783 1.783 0 0 0-.368-.608 1.626 1.626 0 0 0-.586-.4 2.02 2.02 0 0 0-.768-.14h-7.007a5.43 5.43 0 0 1-1.594-.263 4.78 4.78 0 0 1-1.59-.85c-.487-.39-.894-.903-1.218-1.536-.324-.632-.486-1.406-.486-2.32 0-.914.162-1.685.486-2.314.324-.63.73-1.14 1.22-1.536a4.727 4.727 0 0 1 1.587-.855 5.43 5.43 0 0 1 1.593-.265h10.37v3.047h-10.37c-.578 0-1.03.176-1.354.528-.325.35-.487.816-.487 1.394 0 .586.162 1.05.486 1.39.323.34.775.508 1.353.508h7.031a5.38 5.38 0 0 1 2.14.516c.362.172.708.39 1.036.65.328.262.62.577.873.944.254.367.455.79.603 1.265.15.477.223 1.016.223 1.618zM80.05 9.38h-5.32V19h-3.082V9.38h-3.96V6.33h3.96V2.195h3.082v4.137h5.32V9.38zm14.356 5.425c0 .422-.074.877-.222 1.365a4.08 4.08 0 0 1-.72 1.36 4.018 4.018 0 0 1-1.302 1.048c-.535.28-1.185.422-1.95.422h-5.497a4.71 4.71 0 0 1-1.365-.223 4.08 4.08 0 0 1-1.36-.72 4.018 4.018 0 0 1-1.05-1.3c-.28-.536-.42-1.187-.42-1.952 0-.422.074-.88.222-1.37a4.07 4.07 0 0 1 .72-1.367 4.018 4.018 0 0 1 1.302-1.048c.535-.282 1.185-.422 1.95-.422h5.497v2.906h-5.495c-.414 0-.735.127-.96.38-.228.255-.34.57-.34.944 0 .4.13.71.392.932.26.222.572.334.93.334h5.474c.415 0 .735-.125.962-.375.226-.25.34-.564.34-.94v-4.253c0-.398-.123-.714-.37-.95-.246-.233-.556-.35-.93-.35H83.52V6.332h6.69c.423 0 .878.074 1.366.223.488.148.942.388 1.36.72.418.332.767.766 1.048 1.3.282.536.422 1.187.422 1.952v4.278zM109.276 19h-8.26c-.422 0-.883-.074-1.383-.223a4.067 4.067 0 0 1-1.39-.732c-.425-.34-.78-.78-1.065-1.324-.285-.542-.428-1.208-.428-1.997v-4.125a4.696 4.696 0 0 1 .41-1.87c.14-.316.322-.62.545-.908.223-.29.492-.543.81-.76.315-.22.68-.396 1.094-.53.413-.132.882-.198 1.406-.198h8.26V9.38h-8.26c-.4 0-.702.1-.91.304-.206.203-.31.515-.31.937v4.103c0 .398.106.703.317.914.21.21.52.316.926.316h8.237V19zm17.404 0h-4.395l-6.14-5.93a1.415 1.415 0 0 1-.48-1.172 1.59 1.59 0 0 1 .17-.615c.097-.19.23-.353.403-.486l5.567-4.488h4.875l-7.172 5.776L126.68 19zm-11.79 0h-3.046V.977h3.047V19z" fill="#FFF" fill-rule="evenodd"/></svg>